<svg width="80" height="80" viewBox="0 0 80 80" fill="none" xmlns="http://www.w3.org/2000/svg">
<path d="M40.091 0H39.9089C17.8678 0 0 17.8678 0 39.9089V40.0911C0 62.1322 17.8678 80 39.9089 80H40.091C62.1321 80 80 62.1322 80 40.0911V39.9089C80 17.8678 62.1321 0 40.091 0Z" fill="#D8584F"/>
<path d="M60.019 21.6347C56.3361 19.9446 52.3898 18.7001 48.2613 17.9882C48.1856 17.9742 48.1099 18.0079 48.0735 18.0779C47.5661 18.9804 47.0028 20.1604 46.6104 21.0853C42.1708 20.4211 37.7536 20.4211 33.4037 21.0853C33.0085 20.138 32.4255 18.9804 31.9154 18.0779C31.8762 18.0107 31.8005 17.977 31.7276 17.9882C27.6019 18.7001 23.6528 19.9446 19.9699 21.6347C19.9391 21.6487 19.9111 21.6711 19.8915 21.7019C12.4024 32.8907 10.3507 43.8047 11.3569 54.5843C11.3625 54.6375 11.3906 54.688 11.4326 54.7188C16.3739 58.3484 21.1611 60.5514 25.8586 62.0116C25.9343 62.0341 26.0128 62.006 26.0604 61.9444C27.1703 60.4281 28.1625 58.8277 29.0117 57.1432C29.0622 57.0451 29.0117 56.9274 28.9108 56.8881C27.3385 56.2911 25.8445 55.5652 24.4039 54.7412C24.289 54.6739 24.2806 54.5114 24.3843 54.4329C24.687 54.2059 24.9897 53.9704 25.2784 53.7322C25.3317 53.6874 25.4045 53.679 25.4662 53.707C34.92 58.0233 45.1558 58.0233 54.4975 53.707C54.5592 53.6761 54.632 53.6874 54.6853 53.7294C54.9739 53.9676 55.2766 54.2059 55.5821 54.4329C55.6858 54.5114 55.6803 54.6739 55.5654 54.7412C54.1275 55.582 52.6308 56.2939 51.0557 56.8881C50.952 56.9274 50.9071 57.0451 50.9575 57.146C51.8264 58.8249 52.8158 60.4253 53.9061 61.9444C53.9509 62.0088 54.0322 62.0369 54.1079 62.0144C58.8278 60.5542 63.6149 58.3512 68.5563 54.7216C68.5983 54.6908 68.6263 54.6403 68.6319 54.5898C69.8371 42.1286 66.6139 31.3043 60.0919 21.7075C60.075 21.6767 60.0498 21.6515 60.0162 21.6375L60.019 21.6347ZM30.4187 48.0201C27.5711 48.0201 25.228 45.4079 25.228 42.1987C25.228 38.9895 27.529 36.3773 30.4187 36.3773C33.3084 36.3773 35.6571 39.0148 35.6095 42.1987C35.6095 45.4079 33.3084 48.0201 30.4187 48.0201ZM49.615 48.0201C46.7674 48.0201 44.4243 45.4079 44.4243 42.1987C44.4243 38.9895 46.7253 36.3773 49.615 36.3773C52.5047 36.3773 54.8534 39.0148 54.8058 42.1987C54.8058 45.4079 52.5299 48.0201 49.615 48.0201Z" fill="white"/>
</svg>
