<svg width="80" height="80" viewBox="0 0 80 80" fill="none" xmlns="http://www.w3.org/2000/svg">
<path d="M40.0911 0H39.9089C17.8678 0 0 17.8678 0 39.9089V40.0911C0 62.1322 17.8678 80 39.9089 80H40.0911C62.1322 80 80 62.1322 80 40.0911V39.9089C80 17.8678 62.1322 0 40.0911 0Z" fill="#D8584F"/>
<path d="M52.3785 16.2759H27.6243C20.7855 16.2759 15.222 21.8394 15.222 28.6782V51.3248C15.222 58.1636 20.7855 63.7271 27.6243 63.7271H52.3785C59.2173 63.7271 64.7809 58.1636 64.7809 51.3248V28.6782C64.7809 21.8394 59.2173 16.2759 52.3785 16.2759ZM19.5971 28.6782C19.5971 24.2526 23.1987 20.651 27.6243 20.651H52.3785C56.8041 20.651 60.4057 24.2526 60.4057 28.6782V51.3248C60.4057 55.7504 56.8041 59.3519 52.3785 59.3519H27.6243C23.1987 59.3519 19.5971 55.7504 19.5971 51.3248V28.6782Z" fill="white"/>
<path d="M40.0015 51.5351C46.361 51.5351 51.5377 46.3611 51.5377 39.9988C51.5377 33.6365 46.3638 28.4625 40.0015 28.4625C33.6391 28.4625 28.4652 33.6365 28.4652 39.9988C28.4652 46.3611 33.6391 51.5351 40.0015 51.5351ZM40.0015 32.8405C43.9506 32.8405 47.1626 36.0525 47.1626 40.0016C47.1626 43.9507 43.9506 47.1627 40.0015 47.1627C36.0523 47.1627 32.8403 43.9507 32.8403 40.0016C32.8403 36.0525 36.0523 32.8405 40.0015 32.8405Z" fill="white"/>
<path d="M52.6056 30.3265C54.3181 30.3265 55.7139 28.9335 55.7139 27.2182C55.7139 25.5029 54.3209 24.1099 52.6056 24.1099C50.8903 24.1099 49.4973 25.5029 49.4973 27.2182C49.4973 28.9335 50.8903 30.3265 52.6056 30.3265Z" fill="white"/>
</svg>
