<svg width="80" height="80" viewBox="0 0 80 80" fill="none" xmlns="http://www.w3.org/2000/svg">
<path d="M40.0911 0H39.9089C17.8679 0 0 17.8678 0 39.9089V40.0911C0 62.1322 17.8679 80 39.9089 80H40.0911C62.1321 80 80 62.1322 80 40.0911V39.9089C80 17.8678 62.1321 0 40.0911 0Z" fill="#D8584F"/>
<path d="M19.0785 26.5901C18.0247 25.6119 17.5006 24.4011 17.5006 22.9605C17.5006 21.5199 18.0275 20.2558 19.0785 19.2748C20.1324 18.2966 21.489 17.8062 23.151 17.8062C24.8131 17.8062 26.1164 18.2966 27.1674 19.2748C28.2213 20.253 28.7454 21.4834 28.7454 22.9605C28.7454 24.4376 28.2185 25.6119 27.1674 26.5901C26.1136 27.5683 24.7766 28.0587 23.151 28.0587C21.5254 28.0587 20.1324 27.5683 19.0785 26.5901ZM27.8597 32.2013V62.1911H18.3835V32.2013H27.8597Z" fill="#FEFFFC"/>
<path d="M59.405 35.1638C61.4707 37.406 62.5021 40.4835 62.5021 44.4018V61.6613H53.5024V45.6182C53.5024 43.6422 52.9895 42.1063 51.9665 41.0132C50.9435 39.9201 49.5645 39.3707 47.838 39.3707C46.1115 39.3707 44.7324 39.9173 43.7094 41.0132C42.6864 42.1063 42.1735 43.6422 42.1735 45.6182V61.6613H33.1205V32.1171H42.1735V36.0354C43.09 34.7293 44.3261 33.6979 45.8788 32.9384C47.4316 32.1788 49.1777 31.8004 51.12 31.8004C54.5787 31.8004 57.3422 32.9215 59.405 35.161V35.1638Z" fill="#FEFFFC"/>
</svg>
