<svg width="831" height="708" viewBox="0 0 831 708" fill="none" xmlns="http://www.w3.org/2000/svg">
<g filter="url(#filter0_d_7_124)">
<path d="M800.5 604V51H559.5V342" stroke="#D8584F" stroke-width="30" stroke-linecap="round"/>
<path d="M528.5 423H638.5V131H721.5V605H576" stroke="#D8584F" stroke-width="30" stroke-linecap="round"/>
<path d="M472.5 335C472.5 267.829 472.5 206.668 472.5 131H432" stroke="#D8584F" stroke-width="30" stroke-linecap="round"/>
<path d="M398.5 51L473 51" stroke="#D8584F" stroke-width="30" stroke-linecap="round"/>
<path d="M563 515.5C596.976 515.695 616.024 515.805 650 516" stroke="#D8584F" stroke-width="30" stroke-linecap="round"/>
</g>
<g filter="url(#filter1_d_7_124)">
<path d="M24.0003 683C140 484.5 156 363.5 24.5003 117.5C7.50021 66.5 48.0002 54.5 88.0002 58.5C155.5 71.5 191.5 101.5 200.5 114.5M319.5 240.5C503.46 311.295 578.5 485.7 567.5 679M24.5003 682H806" stroke="black" stroke-width="40" stroke-linecap="round"/>
<path d="M323.5 240.5C386.46 240.5 425 198.513 425 135C425 71.4873 373.96 20 311 20C248.04 20 202 51.9873 202 115.5" stroke="black" stroke-width="40" stroke-linecap="round"/>
<ellipse cx="148.251" cy="179.644" rx="23.0695" ry="33.4708" transform="rotate(35.6391 148.251 179.644)" fill="black"/>
</g>
<defs>
<filter id="filter0_d_7_124" x="383.5" y="36" width="437" height="589" filterUnits="userSpaceOnUse" color-interpolation-filters="sRGB">
<feFlood flood-opacity="0" result="BackgroundImageFix"/>
<feColorMatrix in="SourceAlpha" type="matrix" values="0 0 0 0 0 0 0 0 0 0 0 0 0 0 0 0 0 0 127 0" result="hardAlpha"/>
<feOffset dx="5" dy="5"/>
<feComposite in2="hardAlpha" operator="out"/>
<feColorMatrix type="matrix" values="0 0 0 0 0.584314 0 0 0 0 0.6 0 0 0 0 0.533333 0 0 0 1 0"/>
<feBlend mode="normal" in2="BackgroundImageFix" result="effect1_dropShadow_7_124"/>
<feBlend mode="normal" in="SourceGraphic" in2="effect1_dropShadow_7_124" result="shape"/>
</filter>
<filter id="filter1_d_7_124" x="0.517334" y="0" width="830.483" height="708.003" filterUnits="userSpaceOnUse" color-interpolation-filters="sRGB">
<feFlood flood-opacity="0" result="BackgroundImageFix"/>
<feColorMatrix in="SourceAlpha" type="matrix" values="0 0 0 0 0 0 0 0 0 0 0 0 0 0 0 0 0 0 127 0" result="hardAlpha"/>
<feOffset dx="5" dy="5"/>
<feComposite in2="hardAlpha" operator="out"/>
<feColorMatrix type="matrix" values="0 0 0 0 0.584314 0 0 0 0 0.6 0 0 0 0 0.533333 0 0 0 1 0"/>
<feBlend mode="normal" in2="BackgroundImageFix" result="effect1_dropShadow_7_124"/>
<feBlend mode="normal" in="SourceGraphic" in2="effect1_dropShadow_7_124" result="shape"/>
</filter>
</defs>
</svg>
